# Blender v2.79 (sub 0) OBJ File: 'CoolCity.blend'
# www.blender.org
mtllib BackWall.mtl
o Cube.011_Cube.006
v -38.773952 -0.100000 0.378331
v 38.773956 -0.100000 0.378328
v 38.773949 -0.100000 -0.378331
v -38.773972 -0.100000 -0.378327
v -38.773937 34.479530 0.378331
v 38.773979 34.479530 0.378327
v 38.773941 34.479530 -0.378331
v -38.773956 34.479530 -0.378328
vn 0.0000 -1.0000 -0.0000
vn 0.0000 1.0000 0.0000
vn 0.0000 0.0000 1.0000
vn 1.0000 -0.0000 -0.0000
vn -0.0000 -0.0000 -1.0000
vn -1.0000 0.0000 0.0000
usemtl Material.002
s off
f 1//1 4//1 3//1 2//1
f 5//2 6//2 7//2 8//2
f 1//3 2//3 6//3 5//3
f 2//4 3//4 7//4 6//4
f 3//5 4//5 8//5 7//5
f 5//6 8//6 4//6 1//6
