# Blender v2.79 (sub 0) OBJ File: 'Room.blend'
# www.blender.org
mtllib Desk.mtl
o Desk_Cube
v 2.389572 0.896424 -1.000000
v 2.389572 0.896424 1.000000
v 2.389573 1.000000 -0.999999
v 2.389572 1.000000 1.000001
v 2.124962 0.896424 -1.000000
v 2.124962 0.896424 1.000000
v 2.124962 1.000000 -0.999999
v 2.124961 1.000000 1.000001
v 2.389572 0.896424 -0.714286
v 2.389572 0.896424 0.714286
v 2.389573 1.000000 -0.714285
v 2.389572 1.000000 0.714286
v 2.124962 0.896424 0.714286
v 2.124962 0.896424 -0.714286
v 2.124962 1.000000 -0.714285
v 2.124961 1.000000 0.714286
v 2.389572 -1.103576 0.714286
v 2.389572 -1.103576 1.000000
v 2.124962 -1.103576 1.000000
v 2.124962 -1.103576 0.714286
v 2.217412 -0.103576 0.814109
v 2.217412 -0.103576 0.900177
v 2.297122 -0.103576 0.900177
v 2.297122 -0.103576 0.814109
v 2.124962 0.046424 1.000000
v 2.389572 0.046424 1.000000
v 2.124962 0.046424 0.714286
v 2.389572 0.046424 0.714286
v 2.124962 -0.253576 0.714286
v 2.389572 -0.253576 0.714286
v 2.124962 -0.253576 1.000000
v 2.389572 -0.253576 1.000000
v 2.389572 0.896424 -0.713250
v 2.124962 0.896424 -0.713250
v 2.389572 0.896424 -0.998965
v 2.124962 0.896424 -0.998965
v 2.389572 -1.103576 -0.998965
v 2.389572 -1.103576 -0.713250
v 2.124962 -1.103576 -0.713250
v 2.124962 -1.103576 -0.998965
v 2.217412 -0.103576 -0.899141
v 2.217412 -0.103576 -0.813074
v 2.297122 -0.103576 -0.813074
v 2.297122 -0.103576 -0.899141
v 2.124962 0.046424 -0.713250
v 2.389572 0.046424 -0.713250
v 2.124962 0.046424 -0.998965
v 2.389572 0.046424 -0.998965
v 2.124962 -0.253576 -0.998965
v 2.389572 -0.253576 -0.998965
v 2.124962 -0.253576 -0.713250
v 2.389572 -0.253576 -0.713250
v -2.389572 0.896424 -1.000000
v -2.389572 0.896424 1.000000
v -2.389573 1.000000 -0.999999
v -2.389572 1.000000 1.000001
v 0.000000 0.896424 -1.000000
v 0.000000 0.896424 1.000000
v 0.000000 1.000000 -1.000000
v 0.000000 1.000000 1.000000
v -2.124962 0.896424 -1.000000
v -2.124962 0.896424 1.000000
v -2.124962 1.000000 -0.999999
v -2.124961 1.000000 1.000001
v -2.389572 0.896424 -0.714286
v -2.389572 0.896424 0.714286
v -2.389573 1.000000 -0.714285
v -2.389572 1.000000 0.714286
v 0.000000 1.000000 -0.714285
v 0.000000 1.000000 0.714286
v 0.000000 0.896424 0.714286
v 0.000000 0.896424 -0.714286
v -2.124962 0.896424 0.714286
v -2.124962 0.896424 -0.714286
v -2.124962 1.000000 -0.714285
v -2.124961 1.000000 0.714286
v -2.389572 -1.103576 0.714286
v -2.389572 -1.103576 1.000000
v -2.124962 -1.103576 1.000000
v -2.124962 -1.103576 0.714286
v -2.217412 -0.103576 0.814109
v -2.217412 -0.103576 0.900177
v -2.297122 -0.103576 0.900177
v -2.297122 -0.103576 0.814109
v -2.124962 0.046424 1.000000
v -2.389572 0.046424 1.000000
v -2.124962 0.046424 0.714286
v -2.389572 0.046424 0.714286
v -2.124962 -0.253576 0.714286
v -2.389572 -0.253576 0.714286
v -2.124962 -0.253576 1.000000
v -2.389572 -0.253576 1.000000
v -2.389572 0.896424 -0.713250
v -2.124962 0.896424 -0.713250
v -2.389572 0.896424 -0.998965
v -2.124962 0.896424 -0.998965
v -2.389572 -1.103576 -0.998965
v -2.389572 -1.103576 -0.713250
v -2.124962 -1.103576 -0.713250
v -2.124962 -1.103576 -0.998965
v -2.217412 -0.103576 -0.899141
v -2.217412 -0.103576 -0.813074
v -2.297122 -0.103576 -0.813074
v -2.297122 -0.103576 -0.899141
v -2.124962 0.046424 -0.713250
v -2.389572 0.046424 -0.713250
v -2.124962 0.046424 -0.998965
v -2.389572 0.046424 -0.998965
v -2.124962 -0.253576 -0.998965
v -2.389572 -0.253576 -0.998965
v -2.124962 -0.253576 -0.713250
v -2.389572 -0.253576 -0.713250
vn 1.0000 0.0000 0.0000
vn 0.0000 0.0000 -1.0000
vn -0.0000 -0.0000 1.0000
vn 0.0000 1.0000 0.0000
vn 0.0000 -1.0000 0.0000
vn -1.0000 0.0000 0.0000
vn 0.8513 -0.5247 0.0000
vn 0.0000 -0.5540 -0.8325
vn 0.0000 -0.5540 0.8325
vn -0.8513 -0.5247 0.0000
vn 0.8513 0.5247 0.0000
vn 0.0000 0.5540 -0.8325
vn 0.0000 0.5540 0.8325
vn -0.8513 0.5247 0.0000
usemtl Material
s off
f 10//1 12//1 4//1 2//1
f 7//2 5//2 57//2 59//2
f 6//3 8//3 60//3 58//3
f 16//4 70//4 60//4 8//4
f 13//5 6//5 58//5 71//5
f 12//4 16//4 8//4 4//4
f 2//3 4//3 8//3 6//3
f 3//2 1//2 5//2 7//2
f 3//4 7//4 15//4 11//4
f 15//4 16//4 12//4 11//4
f 1//5 9//5 14//5 5//5
f 9//5 10//5 13//5 14//5
f 5//5 14//5 72//5 57//5
f 13//5 71//5 72//5 14//5
f 7//4 59//4 69//4 15//4
f 69//4 70//4 16//4 15//4
f 1//1 3//1 11//1 9//1
f 11//1 12//1 10//1 9//1
f 17//5 18//5 19//5 20//5
f 31//6 29//6 20//6 19//6
f 32//3 31//3 19//3 18//3
f 29//2 30//2 17//2 20//2
f 28//7 26//7 23//7 24//7
f 27//8 28//8 24//8 21//8
f 26//9 25//9 22//9 23//9
f 25//10 27//10 21//10 22//10
f 6//6 13//6 27//6 25//6
f 2//3 6//3 25//3 26//3
f 13//2 10//2 28//2 27//2
f 10//1 2//1 26//1 28//1
f 24//11 23//11 32//11 30//11
f 21//12 24//12 30//12 29//12
f 23//13 22//13 31//13 32//13
f 22//14 21//14 29//14 31//14
f 30//1 32//1 18//1 17//1
f 37//5 38//5 39//5 40//5
f 51//6 49//6 40//6 39//6
f 52//3 51//3 39//3 38//3
f 49//2 50//2 37//2 40//2
f 48//7 46//7 43//7 44//7
f 47//8 48//8 44//8 41//8
f 46//9 45//9 42//9 43//9
f 45//10 47//10 41//10 42//10
f 34//6 36//6 47//6 45//6
f 33//3 34//3 45//3 46//3
f 36//2 35//2 48//2 47//2
f 35//1 33//1 46//1 48//1
f 44//11 43//11 52//11 50//11
f 41//12 44//12 50//12 49//12
f 43//13 42//13 51//13 52//13
f 42//14 41//14 49//14 51//14
f 50//1 52//1 38//1 37//1
f 66//6 54//6 56//6 68//6
f 63//2 59//2 57//2 61//2
f 62//3 58//3 60//3 64//3
f 76//4 64//4 60//4 70//4
f 73//5 71//5 58//5 62//5
f 68//4 56//4 64//4 76//4
f 54//3 62//3 64//3 56//3
f 55//2 63//2 61//2 53//2
f 55//4 67//4 75//4 63//4
f 75//4 67//4 68//4 76//4
f 53//5 61//5 74//5 65//5
f 65//5 74//5 73//5 66//5
f 61//5 57//5 72//5 74//5
f 73//5 74//5 72//5 71//5
f 63//4 75//4 69//4 59//4
f 69//4 75//4 76//4 70//4
f 53//6 65//6 67//6 55//6
f 67//6 65//6 66//6 68//6
f 77//5 80//5 79//5 78//5
f 91//1 79//1 80//1 89//1
f 92//3 78//3 79//3 91//3
f 89//2 80//2 77//2 90//2
f 88//10 84//10 83//10 86//10
f 87//8 81//8 84//8 88//8
f 86//9 83//9 82//9 85//9
f 85//7 82//7 81//7 87//7
f 62//1 85//1 87//1 73//1
f 54//3 86//3 85//3 62//3
f 73//2 87//2 88//2 66//2
f 66//6 88//6 86//6 54//6
f 84//14 90//14 92//14 83//14
f 81//12 89//12 90//12 84//12
f 83//13 92//13 91//13 82//13
f 82//11 91//11 89//11 81//11
f 90//6 77//6 78//6 92//6
f 97//5 100//5 99//5 98//5
f 111//1 99//1 100//1 109//1
f 112//3 98//3 99//3 111//3
f 109//2 100//2 97//2 110//2
f 108//10 104//10 103//10 106//10
f 107//8 101//8 104//8 108//8
f 106//9 103//9 102//9 105//9
f 105//7 102//7 101//7 107//7
f 94//1 105//1 107//1 96//1
f 93//3 106//3 105//3 94//3
f 96//2 107//2 108//2 95//2
f 95//6 108//6 106//6 93//6
f 104//14 110//14 112//14 103//14
f 101//12 109//12 110//12 104//12
f 103//13 112//13 111//13 102//13
f 102//11 111//11 109//11 101//11
f 110//6 97//6 98//6 112//6
