# Blender v2.79 (sub 0) OBJ File: 'Room.blend'
# www.blender.org
mtllib Candle.mtl
o Cylinder_Cylinder.001
v 0.034425 1.060211 -0.025661
v 0.034425 1.386621 -0.025661
v 0.046304 1.060211 -0.024491
v 0.046304 1.386621 -0.024491
v 0.057727 1.060211 -0.021026
v 0.057727 1.386621 -0.021026
v 0.068255 1.060211 -0.015399
v 0.068255 1.386621 -0.015399
v 0.077483 1.060211 -0.007826
v 0.077483 1.386621 -0.007826
v 0.085055 1.060211 0.001402
v 0.085055 1.386621 0.001402
v 0.090682 1.060211 0.011929
v 0.090682 1.386621 0.011929
v 0.094148 1.060211 0.023352
v 0.094148 1.386621 0.023352
v 0.095318 1.060211 0.035232
v 0.095318 1.386621 0.035232
v 0.094148 1.060211 0.047112
v 0.094148 1.386621 0.047112
v 0.090682 1.060211 0.058535
v 0.090682 1.386621 0.058535
v 0.085055 1.060211 0.069062
v 0.085055 1.386621 0.069062
v 0.077483 1.060211 0.078290
v 0.077483 1.386621 0.078290
v 0.068255 1.060211 0.085863
v 0.068255 1.386621 0.085863
v 0.057727 1.060211 0.091490
v 0.057727 1.386621 0.091490
v 0.046304 1.060211 0.094955
v 0.046304 1.386621 0.094955
v 0.034425 1.060211 0.096125
v 0.034425 1.386621 0.096125
v 0.022545 1.060211 0.094955
v 0.022545 1.386621 0.094955
v 0.011122 1.060211 0.091490
v 0.011122 1.386621 0.091490
v 0.000594 1.060211 0.085863
v 0.000594 1.386621 0.085863
v -0.008633 1.060211 0.078290
v -0.008633 1.386621 0.078290
v -0.016206 1.060211 0.069062
v -0.016206 1.386621 0.069062
v -0.021833 1.060211 0.058535
v -0.021833 1.386621 0.058535
v -0.025298 1.060211 0.047112
v -0.025298 1.386621 0.047112
v -0.026468 1.060211 0.035232
v -0.026468 1.386621 0.035232
v -0.025298 1.060211 0.023352
v -0.025298 1.386621 0.023352
v -0.021833 1.060211 0.011929
v -0.021833 1.386621 0.011929
v -0.016206 1.060211 0.001402
v -0.016206 1.386621 0.001402
v -0.008633 1.060211 -0.007826
v -0.008633 1.386621 -0.007826
v 0.000594 1.060211 -0.015399
v 0.000594 1.386621 -0.015399
v 0.011122 1.060211 -0.021026
v 0.011122 1.386621 -0.021026
v 0.022545 1.060211 -0.024491
v 0.022545 1.386621 -0.024491
vt 0.383847 0.079013
vt 0.383847 0.577768
vt 0.368371 0.577768
vt 0.368371 0.079013
vt 0.353792 0.577768
vt 0.353792 0.079013
vt 0.340672 0.577768
vt 0.340672 0.079013
vt 0.329514 0.577768
vt 0.329514 0.079013
vt 0.068356 0.577768
vt 0.068356 0.079013
vt 0.079514 0.079013
vt 0.079514 0.577768
vt 0.092634 0.079013
vt 0.092634 0.577768
vt 0.107213 0.079013
vt 0.107213 0.577768
vt 0.122689 0.079013
vt 0.122689 0.577768
vt 0.138469 0.079013
vt 0.138469 0.577768
vt 0.153945 0.079013
vt 0.153945 0.577768
vt 0.168524 0.079013
vt 0.168524 0.577768
vt 0.181644 0.079013
vt 0.181644 0.577768
vt 0.192802 0.079013
vt 0.192802 0.577768
vt 0.692802 0.079013
vt 0.692802 0.577768
vt 0.679682 0.577768
vt 0.679682 0.079013
vt 0.665103 0.577768
vt 0.665103 0.079013
vt 0.649627 0.577768
vt 0.649627 0.079013
vt 0.633847 0.577768
vt 0.633847 0.079013
vt 0.618370 0.577768
vt 0.618370 0.079013
vt 0.603792 0.577768
vt 0.603792 0.079013
vt 0.590671 0.577768
vt 0.590671 0.079013
vt 0.931644 0.079013
vt 0.931644 0.577768
vt 0.918524 0.577768
vt 0.918524 0.079013
vt 0.903945 0.577768
vt 0.903945 0.079013
vt 0.888469 0.577768
vt 0.888469 0.079013
vt 0.872689 0.577768
vt 0.872689 0.079013
vt 0.857213 0.577768
vt 0.857212 0.079013
vt 0.842634 0.577768
vt 0.842634 0.079013
vt 0.829514 0.577768
vt 0.829513 0.079013
vt 0.453960 0.079013
vt 0.453960 0.577768
vt 0.442802 0.577768
vt 0.442802 0.079013
vt 0.429682 0.577768
vt 0.429682 0.079013
vt 0.415103 0.577768
vt 0.415103 0.079013
vt 0.374398 0.872251
vt 0.368360 0.855400
vt 0.365281 0.837510
vt 0.365281 0.819271
vt 0.368360 0.801381
vt 0.374398 0.784530
vt 0.383165 0.769364
vt 0.394323 0.756466
vt 0.407444 0.746332
vt 0.422022 0.739352
vt 0.437499 0.735794
vt 0.453279 0.735794
vt 0.468755 0.739352
vt 0.483334 0.746332
vt 0.496454 0.756466
vt 0.507612 0.769364
vt 0.516379 0.784530
vt 0.522417 0.801381
vt 0.525496 0.819271
vt 0.525496 0.837511
vt 0.522417 0.855400
vt 0.516379 0.872252
vt 0.507612 0.887418
vt 0.496454 0.900315
vt 0.483333 0.910449
vt 0.468755 0.917429
vt 0.453278 0.920987
vt 0.437499 0.920987
vt 0.422022 0.917429
vt 0.407443 0.910449
vt 0.394323 0.900315
vt 0.383165 0.887417
vt 0.399627 0.577768
vt 0.399627 0.079013
vt 0.110518 0.910449
vt 0.097398 0.900315
vt 0.086240 0.887418
vt 0.077473 0.872252
vt 0.071434 0.855400
vt 0.068356 0.837511
vt 0.068356 0.819271
vt 0.071434 0.801381
vt 0.077473 0.784530
vt 0.086239 0.769364
vt 0.097397 0.756466
vt 0.110518 0.746332
vt 0.125096 0.739352
vt 0.140573 0.735794
vt 0.156353 0.735794
vt 0.171829 0.739352
vt 0.186408 0.746332
vt 0.199528 0.756466
vt 0.210686 0.769364
vt 0.219453 0.784530
vt 0.225492 0.801381
vt 0.228570 0.819271
vt 0.228570 0.837511
vt 0.225492 0.855400
vt 0.219453 0.872252
vt 0.210686 0.887417
vt 0.199528 0.900315
vt 0.186408 0.910449
vt 0.171829 0.917429
vt 0.156353 0.920987
vt 0.140573 0.920987
vt 0.125096 0.917429
vn 0.0980 0.0000 -0.9952
vn 0.2903 0.0000 -0.9569
vn 0.4714 0.0000 -0.8819
vn 0.6344 0.0000 -0.7730
vn 0.7730 0.0000 -0.6344
vn 0.8819 0.0000 -0.4714
vn 0.9569 0.0000 -0.2903
vn 0.9952 0.0000 -0.0980
vn 0.9952 0.0000 0.0980
vn 0.9569 0.0000 0.2903
vn 0.8819 0.0000 0.4714
vn 0.7730 0.0000 0.6344
vn 0.6344 0.0000 0.7730
vn 0.4714 0.0000 0.8819
vn 0.2903 0.0000 0.9569
vn 0.0980 0.0000 0.9952
vn -0.0980 0.0000 0.9952
vn -0.2903 0.0000 0.9569
vn -0.4714 0.0000 0.8819
vn -0.6344 0.0000 0.7730
vn -0.7730 0.0000 0.6344
vn -0.8819 0.0000 0.4714
vn -0.9569 0.0000 0.2903
vn -0.9952 0.0000 0.0980
vn -0.9952 0.0000 -0.0980
vn -0.9569 0.0000 -0.2903
vn -0.8819 0.0000 -0.4714
vn -0.7730 0.0000 -0.6344
vn -0.6344 0.0000 -0.7730
vn -0.4714 0.0000 -0.8819
vn 0.0000 1.0000 0.0000
vn -0.2903 0.0000 -0.9569
vn -0.0980 0.0000 -0.9952
vn 0.0000 -1.0000 -0.0000
usemtl CylinderTexture
s off
f 1/1/1 2/2/1 4/3/1 3/4/1
f 3/4/2 4/3/2 6/5/2 5/6/2
f 5/6/3 6/5/3 8/7/3 7/8/3
f 7/8/4 8/7/4 10/9/4 9/10/4
f 9/11/5 10/12/5 12/13/5 11/14/5
f 11/14/6 12/13/6 14/15/6 13/16/6
f 13/16/7 14/15/7 16/17/7 15/18/7
f 15/18/8 16/17/8 18/19/8 17/20/8
f 17/20/9 18/19/9 20/21/9 19/22/9
f 19/22/10 20/21/10 22/23/10 21/24/10
f 21/24/11 22/23/11 24/25/11 23/26/11
f 23/26/12 24/25/12 26/27/12 25/28/12
f 25/28/13 26/27/13 28/29/13 27/30/13
f 27/31/14 28/32/14 30/33/14 29/34/14
f 29/34/15 30/33/15 32/35/15 31/36/15
f 31/36/16 32/35/16 34/37/16 33/38/16
f 33/38/17 34/37/17 36/39/17 35/40/17
f 35/40/18 36/39/18 38/41/18 37/42/18
f 37/42/19 38/41/19 40/43/19 39/44/19
f 39/44/20 40/43/20 42/45/20 41/46/20
f 41/47/21 42/48/21 44/49/21 43/50/21
f 43/50/22 44/49/22 46/51/22 45/52/22
f 45/52/23 46/51/23 48/53/23 47/54/23
f 47/54/24 48/53/24 50/55/24 49/56/24
f 49/56/25 50/55/25 52/57/25 51/58/25
f 51/58/26 52/57/26 54/59/26 53/60/26
f 53/60/27 54/59/27 56/61/27 55/62/27
f 55/63/28 56/64/28 58/65/28 57/66/28
f 57/66/29 58/65/29 60/67/29 59/68/29
f 59/68/30 60/67/30 62/69/30 61/70/30
f 4/71/31 2/72/31 64/73/31 62/74/31 60/75/31 58/76/31 56/77/31 54/78/31 52/79/31 50/80/31 48/81/31 46/82/31 44/83/31 42/84/31 40/85/31 38/86/31 36/87/31 34/88/31 32/89/31 30/90/31 28/91/31 26/92/31 24/93/31 22/94/31 20/95/31 18/96/31 16/97/31 14/98/31 12/99/31 10/100/31 8/101/31 6/102/31
f 61/70/32 62/69/32 64/103/32 63/104/32
f 63/104/33 64/103/33 2/2/33 1/1/33
f 1/105/34 3/106/34 5/107/34 7/108/34 9/109/34 11/110/34 13/111/34 15/112/34 17/113/34 19/114/34 21/115/34 23/116/34 25/117/34 27/118/34 29/119/34 31/120/34 33/121/34 35/122/34 37/123/34 39/124/34 41/125/34 43/126/34 45/127/34 47/128/34 49/129/34 51/130/34 53/131/34 55/132/34 57/133/34 59/134/34 61/135/34 63/136/34
