# Blender v2.79 (sub 0) OBJ File: 'CoolCity.blend'
# www.blender.org
mtllib SideWall.mtl
o Cube.010_Cube.002
v -0.378329 -0.100000 -28.846975
v -0.378329 -0.100000 28.846977
v 0.378329 -0.100000 28.846972
v 0.378329 -0.100000 -28.846987
v -0.378329 34.479530 -28.846962
v -0.378329 34.479530 28.846994
v 0.378329 34.479530 28.846968
v 0.378329 34.479530 -28.846977
vn 0.0000 -1.0000 0.0000
vn 0.0000 1.0000 -0.0000
vn -1.0000 0.0000 0.0000
vn 0.0000 -0.0000 1.0000
vn 1.0000 -0.0000 -0.0000
vn -0.0000 0.0000 -1.0000
usemtl Material.001
s off
f 1//1 4//1 3//1 2//1
f 5//2 6//2 7//2 8//2
f 1//3 2//3 6//3 5//3
f 2//4 3//4 7//4 6//4
f 3//5 4//5 8//5 7//5
f 5//6 8//6 4//6 1//6
